Coordinates
version=1
nRows=16
nColumns=36
inDegrees=yes

Units are S.I. units (second, meters, Newtons, ...)
If the header above contains a line with 'inDegrees', this indicates whether rotational values are in degrees (yes) or radians (no).

endheader
time	pelvis_tilt	pelvis_list	pelvis_rotation	pelvis_tx	pelvis_ty	pelvis_tz	hip_flexion_r	hip_adduction_r	hip_rotation_r	knee_angle_r	knee_angle_r_beta	ankle_angle_r	subtalar_angle_r	mtp_angle_r	hip_flexion_l	hip_adduction_l	hip_rotation_l	knee_angle_l	knee_angle_l_beta	ankle_angle_l	subtalar_angle_l	mtp_angle_l	lumbar_extension	lumbar_bending	lumbar_rotation	arm_flex_r	arm_add_r	arm_rot_r	elbow_flex_r	pro_sup_r	arm_flex_l	arm_add_l	arm_rot_l	elbow_flex_l	pro_sup_l
      0.67000000	      2.72652125	      3.76590728	     -6.05743840	      0.70736386	      0.93818597	     -0.25614895	     -7.06690253	     -9.45404683	     -7.22536318	     45.74226965	      0.79835321	    -21.06663812	    -29.30884277	     -7.06819762	     17.49329900	      2.71768957	    -12.96408783	     14.99579387	      0.26172598	     -6.32563668	    -18.88960248	     -7.06819762	     -6.62976723	     -5.20276794	      3.66074539	      2.54417598	     -7.78062586	     -9.67677198	     53.48031809	    112.78261296	     -6.24899894	     -7.16146579	    -15.98747138	     19.54651516	    106.45508325
      0.68000000	      2.89844306	      4.27955673	     -5.58714811	      0.71988515	      0.93963947	     -0.25888026	     -5.13712071	    -10.49844265	     -7.64647215	     49.44252019	      0.86293477	    -22.95171135	    -29.83292278	     -7.07424082	     16.60616725	      3.66958938	    -12.55301189	     15.16921896	      0.26475282	     -5.41464845	    -18.84183622	     -7.07424082	     -6.77234846	     -5.78387824	      2.72324980	      1.73529096	     -7.21908457	     -9.79389066	     52.87080372	    112.77575666	     -5.28293092	     -7.35296477	    -15.53644518	     19.94293797	    106.54003288
      0.69000000	      2.95326391	      4.62898457	     -5.15118893	      0.73195918	      0.94102463	     -0.26131562	     -3.06312295	    -11.23845682	     -7.86198328	     52.80163764	      0.92156243	    -24.34229072	    -30.81078855	     -7.08012600	     15.80626073	      4.40821178	    -12.08878032	     15.27685198	      0.26663137	     -4.53723703	    -18.78210301	     -7.08012600	     -6.84731034	     -6.18999332	      1.87118117	      0.99683209	     -6.63339615	    -10.02549966	     52.03665665	    112.75985738	     -4.24862147	     -7.56047968	    -14.96412924	     20.45769051	    106.65741232
      0.70000000	      2.98395829	      4.81122479	     -4.79508616	      0.74379193	      0.94250108	     -0.26345588	     -0.99649761	    -11.71328725	     -7.95974923	     55.73134564	      0.97269548	    -24.89770861	    -31.80261569	     -7.08637146	     14.96445021	      4.93524496	    -11.62463696	     15.27697395	      0.26663350	     -3.72566632	    -18.72377091	     -7.08637146	     -6.90217294	     -6.40716920	      1.13624438	      0.29208564	     -6.07042596	    -10.32922927	     51.05446396	    112.74949619	     -3.17174870	     -7.76134758	    -14.29347252	     20.99286627	    106.78983305
      0.71000000	      2.94698622	      4.87562598	     -4.53535528	      0.75531271	      0.94400729	     -0.26535601	      1.15948817	    -11.97594735	     -7.90840397	     58.28706032	      1.01730111	    -24.32429202	    -32.39481380	     -7.09622462	     14.17045479	      5.29132036	    -11.21710168	     15.23096337	      0.26583046	     -2.98660695	    -18.63054399	     -7.09622462	     -6.90832054	     -6.48045506	      0.51428826	     -0.35104449	     -5.51491710	    -10.79462438	     49.89381964	    112.77620019	     -2.05552914	     -7.98116546	    -13.29462574	     21.49926521	    106.95125219
      0.72000000	      2.98884310	      4.84382609	     -4.47382329	      0.76668124	      0.94576130	     -0.26689686	      3.23057965	    -12.06621517	     -7.68691543	     60.39958281	      1.05417159	    -22.95901113	    -32.85086295	     -7.10185943	     13.14280577	      5.54209224	    -10.75517829	     14.91430738	      0.26030377	     -2.22207919	    -18.69442747	     -7.10185943	     -7.00578517	     -6.45910391	      0.12787097	     -1.01232147	     -5.10692570	    -11.09315042	     48.71205025	    112.76501297	     -0.87929278	     -8.10620601	    -12.69051008	     22.08014494	    107.05937497
      0.73000000	      2.91541044	      4.70869978	     -4.44808160	      0.77777181	      0.94745799	     -0.26820956	      5.40036691	    -11.90880226	     -7.34952720	     62.10828769	      1.08399411	    -20.49113584	    -32.68190914	     -7.11340179	     12.31890210	      5.60144807	    -10.53913545	     14.74321757	      0.25731769	     -1.71326414	    -18.63607342	     -7.11340179	     -6.98860068	     -6.30474258	     -0.32461474	     -1.52000575	     -4.60781159	    -11.62554780	     47.32239250	    112.81499313	      0.23127342	     -8.32900723	    -11.61977858	     22.63041509	    107.19783132
      0.74000000	      2.85688746	      4.44195842	     -4.60736031	      0.78875149	      0.94937354	     -0.26924995	      7.52293024	    -11.51999609	     -6.89029523	     63.27406200	      1.10434071	    -18.42180987	    -32.64071398	     -7.12316628	     11.33692111	      5.51966350	    -10.33652737	     14.30114469	      0.24960206	     -1.10995457	    -18.64233117	     -7.12316628	     -6.99535545	     -6.00603234	     -0.45472904	     -2.07375089	     -4.25881180	    -11.97813613	     45.86000895	    112.84276043	      1.40190901	     -8.38682795	    -10.86003885	     23.31269614	    107.29245777
      0.75000000	      2.79398194	      4.06092564	     -4.82550067	      0.79960262	      0.95139228	     -0.27006828	      9.55936901	    -10.88119215	     -6.35830446	     63.94616514	      1.11607113	    -16.55321223	    -32.56832405	     -7.13061505	     10.33945499	      5.27642403	    -10.24966043	     13.83422255	      0.24145273	     -0.59291983	    -18.61549038	     -7.13061505	     -7.01637296	     -5.58115936	     -0.55881423	     -2.60550255	     -3.99338591	    -12.28425538	     44.33425282	    112.83336234	      2.52283367	     -8.42404855	    -10.29845085	     24.12699832	    107.38612751
      0.76000000	      2.69878795	      3.61847408	     -5.08786874	      0.81036455	      0.95342595	     -0.27075491	     11.53244014	    -10.10588645	     -5.83236185	     64.17438846	      1.12005437	    -14.57370601	    -32.15909683	     -7.14254839	      9.37252312	      4.94541303	    -10.26538675	     13.36389167	      0.23324391	     -0.07138586	    -18.36654116	     -7.14254839	     -7.01206754	     -5.06380801	     -0.76230755	     -3.01752075	     -3.75210181	    -12.60545945	     42.73668284	    112.87241939	      3.49878433	     -8.49870521	     -9.65379902	     24.98566820	    107.47784369
      0.77000000	      2.60077544	      3.10155250	     -5.35565121	      0.82110492	      0.95550312	     -0.27137919	     13.34524154	     -9.17646233	     -5.34237400	     63.86895236	      1.11472351	    -13.58301303	    -32.19912905	     -7.14562476	      8.34873493	      4.55112431	    -10.20964910	     12.77749471	      0.22300935	      0.29825608	    -18.31797939	     -7.14562476	     -7.01758337	     -4.44578795	     -0.79166757	     -3.65256372	     -3.65636036	    -12.77963784	     41.49858378	    112.82720956	      4.58025850	     -8.43344954	     -9.41192280	     25.87540284	    107.56775093
      0.78000000	      2.48722182	      2.59935258	     -5.59814736	      0.83182775	      0.95750424	     -0.27196232	     15.03287248	     -8.26791250	     -4.99079627	     63.16591980	      1.10245328	    -12.35406234	    -31.93685946	     -7.14894084	      7.35072006	      4.16032104	    -10.24673909	     12.20450051	      0.21300872	      0.69341465	    -18.17038244	     -7.14894084	     -6.99765810	     -3.84666308	     -0.87378397	     -4.18309404	     -3.54562244	    -13.09067212	     39.97593358	    112.76062540	      5.55810012	     -8.40907668	     -9.10009050	     26.91601225	    107.68807224
      0.79000000	      2.45484057	      2.15561286	     -5.75846670	      0.84257197	      0.95954385	     -0.27252857	     16.45411164	     -7.49334074	     -4.85115651	     62.07478757	      1.08340943	    -10.21828929	    -30.73922007	     -7.16019378	      6.28802846	      3.81546398	    -10.43415026	     11.69114060	      0.20404890	      1.40855459	    -17.40044797	     -7.16019378	     -7.07155175	     -3.35200044	     -1.31302952	     -4.36381000	     -3.29936563	    -13.58670680	     37.92588939	    112.77523388	      6.22450791	     -8.57382936	     -8.62713482	     28.29223406	    107.86677104
      0.80000000	      2.40089148	      1.68231836	     -5.84897198	      0.85339931	      0.96141341	     -0.27328003	     17.70004283	     -6.73797845	     -4.92626222	     60.54398845	      1.05669194	     -9.03581521	    -30.23001612	     -7.16774642	      5.20576847	      3.47696810	    -10.50472649	     11.07050104	      0.19321669	      1.93244794	    -16.98433078	     -7.16774642	     -7.11430128	     -2.76840345	     -1.52546442	     -4.90991062	     -3.26058033	    -13.93752545	     36.45807488	    112.76682201	      7.09462395	     -8.55829646	     -8.39569718	     29.51914592	    108.01072821
      0.81000000	      2.31509160	      1.30743860	     -5.82987863	      0.86415767	      0.96300618	     -0.27407392	     18.86871568	     -6.12026479	     -5.08746458	     58.75111807	      1.02540045	     -7.63743921	    -29.35024467	     -7.18518217	      4.18749312	      3.22166130	    -10.57445932	     10.48468695	      0.18299231	      2.61363456	    -16.11130900	     -7.18518217	     -7.11567361	     -2.29642100	     -1.94744732	     -5.41633073	     -3.19573667	    -14.32920287	     34.98965076	    112.86220617	      7.84275851	     -8.61589899	     -8.32304157	     30.94750508	    108.19317174
      0.82000000	      2.27422748	      0.92526613	     -5.71873039	      0.87497196	      0.96448515	     -0.27497758	     19.79259621	     -5.55863987	     -5.46753894	     56.56004206	      0.98715896	     -6.93712426	    -29.10865225	     -7.19072377	      3.08234632	      2.99873068	    -10.42553410	      9.78753784	      0.17082476	      2.95838212	    -15.78357267	     -7.19072377	     -7.15660274	     -1.81451288	     -2.28317526	     -6.05728298	     -3.18844157	    -14.75054714	     33.70021702	    112.80559989	      8.73279066	     -8.64378336	     -8.05346047	     32.19393581	    108.35449992
